<?xml version="1.0" encoding="UTF-8" standalone="no"?>
<svg xmlns="http://www.w3.org/2000/svg" version="1.0" viewBox="0 0 630.66 386.54">
 <defs>
  <filter id="a" height="1" width="1" color-interpolation-filters="sRGB" y="0" x="0">
   <feColorMatrix values="0" type="saturate"/>
  </filter>
 </defs>
 <g transform="translate(-68.957 -494.26)">
  <g filter="url(#a)">
   <path d="m520.39 779.72c-12.46 18.98-32.21 30.74-54.19 30.74-29.97 0-55.05-13.65-55.05-46.29 0-48 70.16-65.09 123.92-68.19v14.26c0 31.09-0.6 47.92-14.68 69.48m121.94 38.13v-193.57c0-46.98-8.84-73.17-34-96.1-23.96-21.9-62.95-33.92-115.77-33.92-50.92 0-94.12 12.1-125.17 35.29 27.85 22.24 46.34 55.05 49.94 98.08 0-36.59 25.08-51.62 62.69-51.62 42.08 0 54.36 29.46 54.71 54.11l0.34 11.76c-116.45 5.67-226.17 27.4-224.06 133.89 1.49 74.62 69.05 105.11 115.43 105.03 53.93 0 84.07-14.43 113.7-51.19 0.51 15.55 2.49 31.95 5.15 43.89h104.34c-5.84-18.3-7.3-36.59-7.3-55.65" class="ps018" fill="#49ac44"/>
   <path d="m311.01 775.77c-0.16-8.16 0.34-15.89 1.45-23.02-4.87 26.88-26.41 40.28-53.59 40.28-54.24 0-69.41-40.79-69.41-110.61 0-68.88 16.33-106.24 69.13-106.24 32.8 0 56.53 17.78 56.53 51.45h102.21c-7.41-88.2-77.34-133.37-162.39-133.37-117.16 0-185.98 82.7-185.98 196.92-0.003 109.83 66.62 189.62 179.38 189.62 32.85 0 70.08-7.99 100.05-27.23-21.11-17-36.67-42.42-37.38-77.8" class="ps019" fill="#0084ca"/>
   <path d="m672.39 858.12v15.38h-2.32v-15.38h-5.75v-2.06h13.57l0.34 2.06" class="ps02" fill="#221f1f"/>
   <path d="m697.55 873.5v-14.17l-6.01 14.17h-2.06l-5.92-14.17v14.17h-2.06v-17.44h3.09l6.01 14.77 6.01-14.77h3.01v17.44" class="ps02" fill="#221f1f"/>
  </g>
 </g>
</svg>
