<?xml version="1.0" encoding="UTF-8" standalone="no"?>
<svg xmlns="http://www.w3.org/2000/svg" version="1.1" viewBox="0 0 979.66 500.41">
<g transform="translate(475.43 294.97)">
<g transform="translate(-466.48 -296.27)">
<path stroke-linejoin="round" d="m847.66 186.8h-419.84" stroke="#000" stroke-linecap="round" stroke-width="3.5938px" fill="none"/>
<path d="m429.45 193.44-13.203-6.6406 13.203-6.5625v13.203z" fill-rule="evenodd"/>
<path d="m581.48 157.89v20h100.94v-20h-100.94z" fill-rule="evenodd" fill="#fff"/>
<text xml:space="preserve" font-size="16.25px" y="172.5" x="581.25" font-family="Arial" fill="#000000">CHALLENGE</text>
<path d="m402.11 76.406v304.3h14.141v-304.3h-14.141z" fill-rule="evenodd" fill="#fa72c6"/>
<path d="m848.52 76.406v304.3h14.219v-304.3h-14.219z" fill-rule="evenodd" fill="#fa72c6"/>
<text xml:space="preserve" font-size="30px" y="33.75" x="803.75" font-family="Arial" fill="#000000">Router</text>
<text xml:space="preserve" font-size="30px" y="33.75" x="371.25" font-family="Arial" fill="#000000">Client</text>
<path stroke-linejoin="round" d="m416.25 111.25h419.92" stroke="#000" stroke-linecap="round" stroke-width="3.5938px" fill="none"/>
<path d="m834.45 104.61 13.203 6.6406-13.203 6.5625v-13.203z" fill-rule="evenodd"/>
<path d="m604.61 82.344v20h54.688v-20h-54.688z" fill-rule="evenodd" fill="#fff"/>
<text xml:space="preserve" font-size="16.25px" y="97.5" x="605" font-family="Arial" fill="#000000">HELLO</text>
<path stroke-linejoin="round" d="m335.94 490.86h141.72" stroke="#fa72c6" stroke-linecap="round" stroke-width="3.5938px" fill="none"/>
<path stroke-linejoin="round" d="m817.81 443.59h141.72" stroke="#fa72c6" stroke-linecap="round" stroke-width="3.5938px" fill="none"/>
<path stroke-linejoin="round" d="m477.66 490.86 340.15-47.27" stroke="#fa72c6" stroke-linecap="round" stroke-width="3.5938px" fill="none"/>
<text xml:space="preserve" font-size="20px" y="422.5" x="598.75" font-family="Arial" fill="#000000">Session </text>
<text xml:space="preserve" font-size="20px" y="446.25" x="583.75" font-family="Arial" fill="#000000">established</text>
<path stroke-linejoin="round" d="m148.59 138.36 198.44 86.406" stroke="#000" stroke-linecap="round" stroke-width=".39062px" fill="none"/>
<path d="m2.1094 91.172v94.453h292.89v-94.453h-292.89z" fill-rule="evenodd" fill="#fff"/>
<path stroke-linejoin="round" d="m2.1094 185.62h292.89v-94.453h-292.89v94.453z" stroke="#000" stroke-linecap="round" stroke-width=".39062px" fill="none"/>
<text xml:space="preserve" font-size="20px" y="132.5" x="12.5" font-family="Arial" fill="#000000">Authentication happens before </text>
<text xml:space="preserve" font-size="20px" y="156.25" x="30" font-family="Arial" fill="#000000">Session attaches to Realm</text>
<path stroke-linejoin="round" d="m849.3 342.89h-419.92" stroke="#000" stroke-linecap="round" stroke-width="3.5938px" fill="none"/>
<path d="m431.09 349.53-13.203-6.6406 13.203-6.5625v13.203z" fill-rule="evenodd"/>
<path d="m590.55 313.98v20h86.094v-20h-86.094z" fill-rule="evenodd" fill="#fff"/>
<text xml:space="preserve" font-size="16.25px" y="328.75" x="590" font-family="Arial" fill="#000000">WELCOME</text>
<path stroke-linejoin="round" d="m417.89 267.34h419.84" stroke="#000" stroke-linecap="round" stroke-width="3.5938px" fill="none"/>
<path d="m836.09 260.7 13.203 6.6406-13.203 6.5625v-13.203z" fill-rule="evenodd"/>
<path d="m569.69 238.44v20h127.81v-20h-127.81z" fill-rule="evenodd" fill="#fff"/>
<text xml:space="preserve" font-size="16.25px" y="253.75" x="570" font-family="Arial" fill="#000000">AUTHENTICATE</text>
<path stroke-linejoin="round" d="m382.42 286.25h-11.797c-6.5625 0-11.797-5.3125-11.797-11.875v0 0-37.734c0-6.5625-5.3125-11.875-11.797-11.875v0c6.4844 0 11.797-5.2344 11.797-11.797v0 0-33.047c0-6.5625 5.2344-11.797 11.797-11.797v0 0h11.797" stroke="#000" stroke-linecap="round" stroke-width=".39062px" fill="none"/>
</g>
</g>
</svg>
