<?xml version="1.0" encoding="UTF-8" standalone="no"?>
<svg xmlns:rdf="http://www.w3.org/1999/02/22-rdf-syntax-ns#" xmlns="http://www.w3.org/2000/svg" version="1.1" xmlns:cc="http://creativecommons.org/ns#" xmlns:dc="http://purl.org/dc/elements/1.1/" viewBox="0 0 981.1 374.47">
<g transform="translate(176.25 -476.57)">
<g transform="translate(-167.83 475.73)">
<path stroke-linejoin="round" d="m849.3 186.8h-419.92" stroke="#000" stroke-linecap="round" stroke-width="3.5938px" fill="none"/>
<path d="m431.09 193.44-13.203-6.6406 13.203-6.5625v13.203z" fill-rule="evenodd"/>
<path d="m590.55 157.89v20h86.094v-20h-86.094z" fill-rule="evenodd" fill="#fff"/>
<text xml:space="preserve" font-size="16.25px" y="172.5" x="590" font-family="Arial" fill="#000000">WELCOME</text>
<path d="m403.67 76.406v184.61h14.219v-184.61h-14.219z" fill-rule="evenodd" fill="#fa72c6"/>
<path d="m850.16 76.406v184.61h14.141v-184.61h-14.141z" fill-rule="evenodd" fill="#fa72c6"/>
<text xml:space="preserve" font-size="30px" y="33.75" x="805" font-family="Arial" fill="#000000">Router</text>
<text xml:space="preserve" font-size="30px" y="33.75" x="372.5" font-family="Arial" fill="#000000">Client</text>
<path stroke-linejoin="round" d="m417.89 111.25h417.03" stroke="#000" stroke-linecap="round" stroke-width="5.2344px" fill="none"/>
<path d="m832.89 103.05 16.406 8.2031-16.406 8.2031v-16.406z" fill-rule="evenodd"/>
<path d="m606.25 82.344v20h54.688v-20h-54.688z" fill-rule="evenodd" fill="#fff"/>
<text xml:space="preserve" font-size="16.25px" y="97.5" x="606.25" font-family="Arial" fill="#000000">HELLO</text>
<path stroke-linejoin="round" d="m337.58 364.92h141.72" stroke="#fa72c6" stroke-linecap="round" stroke-width="3.5938px" fill="none"/>
<path stroke-linejoin="round" d="m819.45 317.73h141.72" stroke="#fa72c6" stroke-linecap="round" stroke-width="3.5938px" fill="none"/>
<path stroke-linejoin="round" d="m479.3 364.92 340.16-47.188" stroke="#fa72c6" stroke-linecap="round" stroke-width="3.5938px" fill="none"/>
<text xml:space="preserve" font-size="20px" y="296.25" x="601.25" font-family="Arial" fill="#000000">Session </text>
<text xml:space="preserve" font-size="20px" y="320" x="586.25" font-family="Arial" fill="#000000">established</text>
<path stroke-linejoin="round" d="m148.59 199.61 496.02-88.36" stroke="#000" stroke-linecap="round" stroke-width=".39062px" fill="none"/>
<path d="m2.1094 152.34v94.531h292.89v-94.531h-292.89z" fill-rule="evenodd" fill="#fff"/>
<path stroke-linejoin="round" d="m2.1094 246.88h292.89v-94.531h-292.89v94.531z" stroke="#000" stroke-linecap="round" stroke-width=".39062px" fill="none"/>
<text xml:space="preserve" font-size="20px" y="193.75" x="15" font-family="Arial" fill="#000000">Session establishment always </text>
<text xml:space="preserve" font-size="20px" y="217.5" x="70" font-family="Arial" fill="#000000">initiated by </text>
<text font-weight="bold" xml:space="preserve" font-size="20px" y="217.5" x="171.25" font-family="Arial" fill="#000000">Client</text>
</g>
</g>
</svg>
