<?xml version="1.0" encoding="UTF-8" standalone="no"?>
<svg xmlns="http://www.w3.org/2000/svg" version="1.1" viewBox="0 0 1027.2 515.09">
 <g transform="translate(1045.5 -36.509)">
  <g transform="translate(-1041 33.565)">
   <path stroke-linejoin="round" d="m931.93 128.82h-420.16" stroke="#000" stroke-linecap="round" stroke-width="3.5958px" fill="none"/>
   <path d="m513.41 135.39-13.211-6.5662 13.211-6.6444v13.211z" fill-rule="evenodd"/>
   <path d="m667.88 99.9v20.011h96.382v-20.011h-96.382z" fill-rule="evenodd" fill="#fff"/>
   <text xml:space="preserve" font-size="16.259px" y="115.06468" x="667.87543" font-family="Arial" fill="#000000">SUBSCRIBE</text>
   <path d="m485.19 76.449v430.55h14.149v-430.55h-14.149z" fill-rule="evenodd" fill="#fa72c6"/>
   <path d="m57.376 76.449v430.55h14.227v-430.55h-14.227z" fill-rule="evenodd" fill="#fa72c6"/>
   <path d="m931.93 76.449v430.55h14.149v-430.55h-14.149z" fill-rule="evenodd" fill="#fa72c6"/>
   <path stroke-linejoin="round" d="m931.93 388.81h-420.16" stroke="#000" stroke-linecap="round" stroke-width="3.5958px" fill="none"/>
   <path d="m513.41 395.38-13.211-6.5662 13.211-6.6444v13.211z" fill-rule="evenodd"/>
   <path d="m655.84 359.89v20.011h120.46v-20.011h-120.46z" fill-rule="evenodd" fill="#fff"/>
   <text xml:space="preserve" font-size="16.259px" y="375.21094" x="655.36841" font-family="Arial" fill="#000000">UNSUBSCRIBE</text>
   <text xml:space="preserve" font-size="30.017px" y="33.768986" x="2.5014062" font-family="Arial" fill="#000000">Publisher</text>
   <text xml:space="preserve" font-size="30.017px" y="33.768986" x="867.98798" font-family="Arial" fill="#000000">Subscriber</text>
   <text xml:space="preserve" font-size="30.017px" y="33.768986" x="447.75171" font-family="Arial" fill="#000000">Broker</text>
   <path stroke-linejoin="round" d="m500.2 199.72h420.16" stroke="#000" stroke-linecap="round" stroke-width="3.5958px" fill="none"/>
   <path d="m918.72 193.08 13.211 6.6444-13.211 6.5662v-13.211z" fill-rule="evenodd"/>
   <path d="m619.72 170.8v20.011h192.69v-20.011h-192.69z" fill-rule="evenodd" fill="#fff"/>
   <text xml:space="preserve" font-size="16.259px" y="186.35477" x="619.09802" font-family="Arial" fill="#000000">SUBSCRIBED or ERROR</text>
   <path stroke-linejoin="round" d="m500.2 459.71h420.16" stroke="#000" stroke-linecap="round" stroke-width="3.5958px" fill="none"/>
   <path d="m918.72 453.07 13.211 6.6444-13.211 6.5662v-13.211z" fill-rule="evenodd"/>
   <path d="m607.69 430.79v20.011h216.76v-20.011h-216.76z" fill-rule="evenodd" fill="#fff"/>
   <text xml:space="preserve" font-size="16.259px" y="445.25031" x="607.84167" font-family="Arial" fill="#000000">UNSUBSCRIBED or ERROR</text>
  </g>
 </g>
</svg>
