<?xml version="1.0" encoding="UTF-8" standalone="no"?>
<svg xmlns:rdf="http://www.w3.org/1999/02/22-rdf-syntax-ns#" xmlns="http://www.w3.org/2000/svg" version="1.1" xmlns:cc="http://creativecommons.org/ns#" xmlns:dc="http://purl.org/dc/elements/1.1/" viewBox="0 0 1031.6 367.15">
<g transform="translate(155.96 -116.08)">
<g transform="translate(-149.73 114.78)">
<path d="m485.19 76.449v282.82h14.149v-282.82h-14.149z" fill-rule="evenodd" fill="#fa72c6"/>
<path d="m57.376 76.449v282.82h14.227v-282.82h-14.227z" fill-rule="evenodd" fill="#fa72c6"/>
<path d="m931.93 76.449v282.82h14.149v-282.82h-14.149z" fill-rule="evenodd" fill="#fa72c6"/>
<path stroke-linejoin="round" d="m72.306 122.88h398.97" stroke="#000" stroke-linecap="round" stroke-width="3.5958px" fill="none"/>
<path d="m469.64 116.32 13.211 6.5662-13.211 6.6444v-13.211z" fill-rule="evenodd"/>
<path d="m241.85 93.959v20.011h71.368v-20.011h-71.368z" fill-rule="evenodd" fill="#fff"/>
<text xml:space="preserve" font-size="16.259px" y="108.81117" x="241.3857" font-family="Arial" fill="#000000">PUBLISH</text>
<path stroke-linejoin="round" d="m500.2 232.79h420.16" stroke="#000" stroke-linecap="round" stroke-width="3.5958px" fill="none"/>
<path d="m918.72 226.22 13.211 6.5662-13.211 6.6444v-13.211z" fill-rule="evenodd"/>
<path d="m688.28 203.86v20.011h55.578v-20.011h-55.578z" fill-rule="evenodd" fill="#fff"/>
<text xml:space="preserve" font-size="16.259px" y="218.87305" x="687.88672" font-family="Arial" fill="#000000">EVENT</text>
<path stroke-linejoin="round" d="m482.85 187.92h-399.05" stroke="#000" stroke-linecap="round" stroke-width="3.5958px" fill="none"/>
<path d="m85.517 194.48-13.211-6.5662 13.211-6.6444v13.211z" fill-rule="evenodd"/>
<path d="m188.15 159v20.011h178.85v-20.011h-178.85z" fill-rule="evenodd" fill="#fff"/>
<text xml:space="preserve" font-size="16.259px" y="173.84773" x="187.60545" font-family="Arial" fill="#000000">PUBLISHED or ERROR</text>
<text xml:space="preserve" font-size="30.017px" y="33.768986" x="2.5014062" font-family="Arial" fill="#000000">Publisher</text>
<text xml:space="preserve" font-size="30.017px" y="33.768986" x="872.99078" font-family="Arial" fill="#000000">Subscriber</text>
<text xml:space="preserve" font-size="30.017px" y="33.768986" x="447.75171" font-family="Arial" fill="#000000">Broker</text>
</g>
</g>
</svg>
