<?xml version="1.0" encoding="UTF-8" standalone="no"?>
<svg xmlns:rdf="http://www.w3.org/1999/02/22-rdf-syntax-ns#" xmlns="http://www.w3.org/2000/svg" version="1.1" xmlns:cc="http://creativecommons.org/ns#" xmlns:dc="http://purl.org/dc/elements/1.1/" viewBox="0 0 1311.1 366.98">
<g transform="translate(303.59 -159.41)">
<g transform="translate(-296.81 157.76)">
<path d="m433.21 76.449v282.82h14.149v-282.82h-14.149z" fill-rule="evenodd" fill="#fa72c6"/>
<path d="m57.376 76.449v282.82h14.227v-282.82h-14.227z" fill-rule="evenodd" fill="#fa72c6"/>
<path d="m837.35 76.449v282.82h14.227v-282.82h-14.227z" fill-rule="evenodd" fill="#fa72c6"/>
<path stroke-linejoin="round" d="m72.306 122.88h349.34" stroke="#000" stroke-linecap="round" stroke-width="3.5958px" fill="none"/>
<path d="m420 116.32 13.211 6.5662-13.211 6.6444v-13.211z" fill-rule="evenodd"/>
<path d="m217.08 93.959v20.011h71.368v-20.011h-71.368z" fill-rule="evenodd" fill="#fff"/>
<text xml:space="preserve" font-size="16.259px" y="108.81117" x="217.62234" font-family="Arial" fill="#000000">PUBLISH</text>
<path stroke-linejoin="round" d="m851.57 281.25h352.39" stroke="#000" stroke-linecap="round" stroke-width="3.5958px" fill="none"/>
<path d="m1202.3 274.69 13.211 6.5662-13.211 6.6444v-13.211z" fill-rule="evenodd"/>
<path d="m1005.7 252.33v20.011h55.578v-20.011h-55.578z" fill-rule="evenodd" fill="#fff"/>
<text xml:space="preserve" font-size="16.259px" y="267.65045" x="1005.5653" font-family="Arial" fill="#000000">EVENT</text>
<path stroke-linejoin="round" d="m433.21 174.94h-350.12" stroke="#000" stroke-linecap="round" stroke-width="3.5958px" fill="none"/>
<path d="m84.813 181.51-13.211-6.5662 13.211-6.6444v13.211z" fill-rule="evenodd"/>
<path d="m162.98 146.02v20.011h178.85v-20.011h-178.85z" fill-rule="evenodd" fill="#fff"/>
<text xml:space="preserve" font-size="16.259px" y="161.3407" x="162.5914" font-family="Arial" fill="#000000">PUBLISHED or ERROR</text>
<text xml:space="preserve" font-size="30.017px" y="33.768986" x="2.5014062" font-family="Arial" fill="#000000">Publisher</text>
<text xml:space="preserve" font-size="30.017px" y="36.27039" x="1151.8976" font-family="Arial" fill="#000000">Subscriber</text>
<text xml:space="preserve" font-size="30.017px" y="36.27039" x="386.46725" font-family="Arial" fill="#000000">Broker </text>
<text xml:space="preserve" font-size="30.017px" y="36.27039" x="482.77139" font-family="Arial" fill="#000000">1</text>
<path d="m1215.5 76.449v282.82h14.149v-282.82h-14.149z" fill-rule="evenodd" fill="#fa72c6"/>
<path stroke-linejoin="round" d="m447.36 198.55h378.42" stroke="#000" stroke-linecap="round" stroke-width="3.5958px" fill="none"/>
<path d="m824.14 191.9 13.211 6.6444-13.211 6.5662v-13.211z" fill-rule="evenodd"/>
<path d="m606.67 169.63v20.011h71.368v-20.011h-71.368z" fill-rule="evenodd" fill="#fff"/>
<text xml:space="preserve" font-size="16.259px" y="185.10406" x="606.591" font-family="Arial" fill="#000000">PUBLISH</text>
<path stroke-linejoin="round" d="m837.35 255.3h-378.42" stroke="#000" stroke-linecap="round" stroke-width="3.5958px" fill="none"/>
<path d="m460.57 261.87-13.211-6.5662 13.211-6.6444v13.211z" fill-rule="evenodd"/>
<path d="m552.97 226.38v20.011h178.85v-20.011h-178.85z" fill-rule="evenodd" fill="#fff"/>
<text xml:space="preserve" font-size="16.259px" y="241.3857" x="552.81079" font-family="Arial" fill="#000000">PUBLISHED or ERROR</text>
<text xml:space="preserve" font-size="30.017px" y="36.27039" x="787.94293" font-family="Arial" fill="#000000">Broker </text>
<text xml:space="preserve" font-size="30.017px" y="36.27039" x="884.24707" font-family="Arial" fill="#000000">2</text>
</g>
</g>
</svg>
