<?xml version="1.0" encoding="UTF-8" standalone="no"?>
<svg xmlns="http://www.w3.org/2000/svg" version="1.1" viewBox="0 0 965.41 367.35">
<g transform="translate(30.863 -490.84)">
<g transform="translate(-26.138 488.88)">
<path d="m461.82 76.449v282.82h14.149v-282.82h-14.149z" fill-rule="evenodd" fill="#fa72c6"/>
<path d="m34.003 76.449v282.82h14.227v-282.82h-14.227z" fill-rule="evenodd" fill="#fa72c6"/>
<path d="m908.56 76.449v282.82h14.149v-282.82h-14.149z" fill-rule="evenodd" fill="#fa72c6"/>
<path stroke-linejoin="round" d="m48.934 122.88h398.97" stroke="#000" stroke-linecap="round" stroke-width="3.5958px" fill="none"/>
<path d="m446.27 116.32 13.211 6.5662-13.211 6.6444v-13.211z" fill-rule="evenodd"/>
<path d="m233.33 93.959v20.011h41.664v-20.011h-41.664z" fill-rule="evenodd" fill="#fff"/>
<text xml:space="preserve" font-size="16.259px" y="108.81117" x="233.88148" font-family="Arial" fill="#000000">CALL</text>
<path stroke-linejoin="round" d="m476.83 145.08h420.16" stroke="#000" stroke-linecap="round" stroke-width="3.5958px" fill="none"/>
<path d="m895.35 138.52 13.211 6.5662-13.211 6.6444v-13.211z" fill-rule="evenodd"/>
<path d="m640.83 116.16v20.011h103.73v-20.011h-103.73z" fill-rule="evenodd" fill="#fff"/>
<text xml:space="preserve" font-size="16.259px" y="131.32384" x="640.35999" font-family="Arial" fill="#000000">INVOCATION</text>
<path stroke-linejoin="round" d="m908.56 272.11h-420.16" stroke="#000" stroke-linecap="round" stroke-width="3.5958px" fill="none"/>
<path d="m490.04 278.75-13.211-6.6444 13.211-6.5662v13.211z" fill-rule="evenodd"/>
<path d="m626.45 243.18v20.011h132.5v-20.011h-132.5z" fill-rule="evenodd" fill="#fff"/>
<text xml:space="preserve" font-size="16.259px" y="257.64484" x="626.60223" font-family="Arial" fill="#000000">YIELD or ERROR</text>
<path stroke-linejoin="round" d="m459.48 294.31h-399.05" stroke="#000" stroke-linecap="round" stroke-width="3.5958px" fill="none"/>
<path d="m62.144 300.95-13.211-6.6444 13.211-6.5662v13.211z" fill-rule="evenodd"/>
<path d="m179.16 265.38v20.011h150.08v-20.011h-150.08z" fill-rule="evenodd" fill="#fff"/>
<text xml:space="preserve" font-size="16.259px" y="280.1575" x="178.85054" font-family="Arial" fill="#000000">RESULT or ERROR</text>
<text xml:space="preserve" font-size="30.017px" y="33.768986" x="2.5014062" font-family="Arial" fill="#000000">Caller</text>
<text xml:space="preserve" font-size="30.017px" y="33.768986" x="865.48651" font-family="Arial" fill="#000000">Callee</text>
<text xml:space="preserve" font-size="30.017px" y="33.768986" x="425.23904" font-family="Arial" fill="#000000">Dealer</text>
</g>
</g>
</svg>
