<?xml version="1.0" encoding="UTF-8" standalone="no"?>
<svg xmlns="http://www.w3.org/2000/svg" version="1.1" viewBox="0 0 965.41 515.09">
 <g transform="translate(130.86 27.777)">
  <g transform="translate(-125.72 -30.748)">
   <path stroke-linejoin="round" d="m908.56 128.82h-420.16" stroke="#000" stroke-linecap="round" stroke-width="3.5958px" fill="none"/>
   <path d="m490.04 135.39-13.211-6.5662 13.211-6.6444v13.211z" fill-rule="evenodd"/>
   <path d="m650.05 99.9v20.011h85.282v-20.011h-85.282z" fill-rule="evenodd" fill="#fff"/>
   <text xml:space="preserve" font-size="16.259px" y="115.06468" x="650.3656" font-family="Arial" fill="#000000">REGISTER</text>
   <path d="m461.82 76.449v430.55h14.149v-430.55h-14.149z" fill-rule="evenodd" fill="#fa72c6"/>
   <path d="m34.003 76.449v430.55h14.227v-430.55h-14.227z" fill-rule="evenodd" fill="#fa72c6"/>
   <path d="m908.56 76.449v430.55h14.149v-430.55h-14.149z" fill-rule="evenodd" fill="#fa72c6"/>
   <path stroke-linejoin="round" d="m908.56 388.81h-420.16" stroke="#000" stroke-linecap="round" stroke-width="3.5958px" fill="none"/>
   <path d="m490.04 395.38-13.211-6.5662 13.211-6.6444v13.211z" fill-rule="evenodd"/>
   <path d="m638.01 359.89v20.011h109.36v-20.011h-109.36z" fill-rule="evenodd" fill="#fff"/>
   <text xml:space="preserve" font-size="16.259px" y="375.21094" x="637.85858" font-family="Arial" fill="#000000">UNREGISTER</text>
   <text xml:space="preserve" font-size="30.017px" y="33.768986" x="2.5014062" font-family="Arial" fill="#000000">Caller</text>
   <text xml:space="preserve" font-size="30.017px" y="33.768986" x="865.48651" font-family="Arial" fill="#000000">Callee</text>
   <text xml:space="preserve" font-size="30.017px" y="33.768986" x="425.23904" font-family="Arial" fill="#000000">Dealer</text>
   <path stroke-linejoin="round" d="m476.83 199.72h420.16" stroke="#000" stroke-linecap="round" stroke-width="3.5958px" fill="none"/>
   <path d="m895.35 193.08 13.211 6.6444-13.211 6.5662v-13.211z" fill-rule="evenodd"/>
   <path d="m596.35 170.8v20.011h192.69v-20.011h-192.69z" fill-rule="evenodd" fill="#fff"/>
   <text xml:space="preserve" font-size="16.259px" y="186.35477" x="596.58539" font-family="Arial" fill="#000000">REGISTERED or ERROR</text>
   <path stroke-linejoin="round" d="m476.83 459.71h420.16" stroke="#000" stroke-linecap="round" stroke-width="3.5958px" fill="none"/>
   <path d="m895.35 453.07 13.211 6.6444-13.211 6.5662v-13.211z" fill-rule="evenodd"/>
   <path d="m584.31 430.79v20.011h216.76v-20.011h-216.76z" fill-rule="evenodd" fill="#fff"/>
   <text xml:space="preserve" font-size="16.259px" y="445.25031" x="584.07837" font-family="Arial" fill="#000000">UNREGISTERED or ERROR</text>
  </g>
 </g>
</svg>
