<?xml version="1.0" encoding="UTF-8" standalone="no"?>
<svg xmlns="http://www.w3.org/2000/svg" version="1.1" viewBox="0 0 965.41 420.5">
<g transform="translate(705.09 -91.205)">
<g transform="translate(-698.94 89.429)">
<path d="m461.82 76.449v335.97h14.149v-335.97h-14.149z" fill-rule="evenodd" fill="#fa72c6"/>
<path d="m34.003 76.449v335.97h14.227v-335.97h-14.227z" fill-rule="evenodd" fill="#fa72c6"/>
<path d="m908.56 76.449v335.97h14.149v-335.97h-14.149z" fill-rule="evenodd" fill="#fa72c6"/>
<path stroke-linejoin="round" d="m48.934 151.8h398.97" stroke="#000" stroke-linecap="round" stroke-width="3.5958px" fill="none"/>
<path d="m446.27 145.24 13.211 6.5662-13.211 6.6444v-13.211z" fill-rule="evenodd"/>
<path d="m233.33 122.88v20.011h41.664v-20.011h-41.664z" fill-rule="evenodd" fill="#fff"/>
<text xml:space="preserve" font-size="16.259px" y="137.57735" x="233.88148" font-family="Arial" fill="#000000">CALL</text>
<path stroke-linejoin="round" d="m476.83 174h420.16" stroke="#000" stroke-linecap="round" stroke-width="3.5958px" fill="none"/>
<path d="m895.35 167.44 13.211 6.5662-13.211 6.6444v-13.211z" fill-rule="evenodd"/>
<path d="m640.83 145.08v20.011h103.73v-20.011h-103.73z" fill-rule="evenodd" fill="#fff"/>
<text xml:space="preserve" font-size="16.259px" y="160.09" x="640.35999" font-family="Arial" fill="#000000">INVOCATION</text>
<path stroke-linejoin="round" d="m908.56 365.13h-420.16" stroke="#000" stroke-linecap="round" stroke-width="3.5958px" fill="none"/>
<path d="m490.04 371.77-13.211-6.6444 13.211-6.5662v13.211z" fill-rule="evenodd"/>
<path d="m662.56 336.28v20.011h60.268v-20.011h-60.268z" fill-rule="evenodd" fill="#fff"/>
<text xml:space="preserve" font-size="16.259px" y="351.44757" x="662.87262" font-family="Arial" fill="#000000">ERROR</text>
<path stroke-linejoin="round" d="m459.48 294.23h-399.05" stroke="#000" stroke-linecap="round" stroke-width="3.5958px" fill="none"/>
<path d="m62.144 300.87-13.211-6.6444 13.211-6.5662v13.211z" fill-rule="evenodd"/>
<path d="m224.03 265.31v20.011h60.268v-20.011h-60.268z" fill-rule="evenodd" fill="#fff"/>
<text xml:space="preserve" font-size="16.259px" y="280.1575" x="223.87585" font-family="Arial" fill="#000000">ERROR</text>
<text xml:space="preserve" font-size="30.017px" y="33.768986" x="2.5014062" font-family="Arial" fill="#000000">Caller</text>
<text xml:space="preserve" font-size="30.017px" y="33.768986" x="865.48651" font-family="Arial" fill="#000000">Callee</text>
<text xml:space="preserve" font-size="30.017px" y="33.768986" x="425.23904" font-family="Arial" fill="#000000">Dealer</text>
<path stroke-linejoin="round" d="m51.279 247.01h398.97" stroke="#000" stroke-linecap="round" stroke-width="3.5958px" fill="none"/>
<path d="m448.61 240.37 13.211 6.6444-13.211 6.5662v-13.211z" fill-rule="evenodd"/>
<path d="m222.7 218.09v20.011h67.694v-20.011h-67.694z" fill-rule="evenodd" fill="#fff"/>
<text xml:space="preserve" font-size="16.259px" y="232.63078" x="222.62515" font-family="Arial" fill="#000000">CANCEL</text>
<path stroke-linejoin="round" d="m476.83 317.91h420.16" stroke="#000" stroke-linecap="round" stroke-width="3.5958px" fill="none"/>
<path d="m895.35 311.27 13.211 6.6444-13.211 6.5662v-13.211z" fill-rule="evenodd"/>
<path d="m644.97 288.99v20.011h95.444v-20.011h-95.444z" fill-rule="evenodd" fill="#fff"/>
<text xml:space="preserve" font-size="16.259px" y="303.92084" x="645.36279" font-family="Arial" fill="#000000">INTERRUPT</text>
</g>
</g>
</svg>
