<?xml version="1.0" encoding="UTF-8" standalone="no"?>
<svg xmlns="http://www.w3.org/2000/svg" version="1.1" viewBox="0 0 965.41 622.57">
 <g transform="translate(413.72 34.95)">
  <g transform="translate(-408.99 -34.152)">
   <path d="m461.2 70.899v543.59h14.227v-543.59h-14.227z" fill-rule="evenodd" fill="#fa72c6"/>
   <path d="m33.456 70.899v543.59h14.149v-543.59h-14.149z" fill-rule="evenodd" fill="#fa72c6"/>
   <path d="m907.93 70.899v543.59h14.149v-543.59h-14.149z" fill-rule="evenodd" fill="#fa72c6"/>
   <path stroke-linejoin="round" d="m48.308 144.93h398.97" stroke="#000" stroke-linecap="round" stroke-width="3.5958px" fill="none"/>
   <path d="m445.64 138.28 13.211 6.6444-13.211 6.5662v-13.211z" fill-rule="evenodd"/>
   <path d="m232.71 116v20.011h41.742v-20.011h-41.742z" fill-rule="evenodd" fill="#fff"/>
   <text xml:space="preserve" font-size="16.259px" y="131.32384" x="232.63078" font-family="Arial" fill="#000000">CALL</text>
   <path stroke-linejoin="round" d="m476.28 167.13h420.08" stroke="#000" stroke-linecap="round" stroke-width="3.5958px" fill="none"/>
   <path d="m894.72 160.48 13.211 6.6444-13.211 6.5662v-13.211z" fill-rule="evenodd"/>
   <path d="m640.2 138.2v20.011h103.81v-20.011h-103.81z" fill-rule="evenodd" fill="#fff"/>
   <text xml:space="preserve" font-size="16.259px" y="152.58578" x="640.35999" font-family="Arial" fill="#000000">INVOCATION</text>
   <path stroke-linejoin="round" d="m907.93 507.24h-420.08" stroke="#000" stroke-linecap="round" stroke-width="3.5958px" fill="none"/>
   <path d="m489.49 513.8-13.211-6.5662 13.211-6.5662v13.132z" fill-rule="evenodd"/>
   <path d="m625.82 478.32v20.011h132.57v-20.011h-132.57z" fill-rule="evenodd" fill="#fff"/>
   <text xml:space="preserve" font-size="16.259px" y="492.77701" x="625.35156" font-family="Arial" fill="#000000">YIELD or ERROR</text>
   <path stroke-linejoin="round" d="m458.85 529.44h-398.97" stroke="#000" stroke-linecap="round" stroke-width="3.5958px" fill="none"/>
   <path d="m61.519 536-13.211-6.5662 13.211-6.5662v13.132z" fill-rule="evenodd"/>
   <path d="m178.54 500.52v20.011h150.08v-20.011h-150.08z" fill-rule="evenodd" fill="#fff"/>
   <text xml:space="preserve" font-size="16.259px" y="515.28967" x="178.85054" font-family="Arial" fill="#000000">RESULT or ERROR</text>
   <text xml:space="preserve" font-size="30.017px" y="33.768986" x="2.5014062" font-family="Arial" fill="#000000">Caller</text>
   <text xml:space="preserve" font-size="30.017px" y="33.768986" x="865.48651" font-family="Arial" fill="#000000">Callee</text>
   <text xml:space="preserve" font-size="30.017px" y="33.768986" x="425.23904" font-family="Arial" fill="#000000">Dealer</text>
   <path stroke-linejoin="round" d="m907.93 374.35h-420.08" stroke="#000" stroke-linecap="round" stroke-width="3.5958px" fill="none"/>
   <path d="m489.49 380.92-13.211-6.5662 13.211-6.6444v13.211z" fill-rule="evenodd"/>
   <path d="m627.7 345.43v20.011h128.82v-20.011h-128.82z" fill-rule="evenodd" fill="#fff"/>
   <text xml:space="preserve" font-size="16.259px" y="360.20248" x="627.85297" font-family="Arial" fill="#000000">YIELD </text>
   <text xml:space="preserve" font-size="16.259px" y="360.20248" x="680.38251" font-family="Arial" fill="#000000">(</text>
   <text xml:space="preserve" font-size="16.259px" y="360.20248" x="686.63599" font-family="Arial" fill="#000000">progress</text>
   <text xml:space="preserve" font-size="16.259px" y="360.20248" x="750.42188" font-family="Arial" fill="#000000">)</text>
   <path stroke-linejoin="round" d="m458.85 396.55h-398.97" stroke="#000" stroke-linecap="round" stroke-width="3.5958px" fill="none"/>
   <path d="m61.519 403.12-13.211-6.5662 13.211-6.6444v13.211z" fill-rule="evenodd"/>
   <path d="m180.41 367.63v20.011h146.41v-20.011h-146.41z" fill-rule="evenodd" fill="#fff"/>
   <text xml:space="preserve" font-size="16.259px" y="382.71515" x="180.10126" font-family="Arial" fill="#000000">RESULT </text>
   <text xml:space="preserve" font-size="16.259px" y="382.71515" x="251.39133" font-family="Arial" fill="#000000">(</text>
   <text xml:space="preserve" font-size="16.259px" y="382.71515" x="256.39413" font-family="Arial" fill="#000000">progress</text>
   <text xml:space="preserve" font-size="16.259px" y="382.71515" x="321.43069" font-family="Arial" fill="#000000">)</text>
   <path stroke-linejoin="round" d="m904.73 307.75h-420.16" stroke="#000" stroke-linecap="round" stroke-width="3.5958px" fill="none"/>
   <path d="m486.29 314.32-13.211-6.5662 13.211-6.6444v13.211z" fill-rule="evenodd"/>
   <path d="m624.49 278.83v20.011h128.82v-20.011h-128.82z" fill-rule="evenodd" fill="#fff"/>
   <text xml:space="preserve" font-size="16.259px" y="293.91522" x="624.10083" font-family="Arial" fill="#000000">YIELD </text>
   <text xml:space="preserve" font-size="16.259px" y="293.91522" x="677.8811" font-family="Arial" fill="#000000">(</text>
   <text xml:space="preserve" font-size="16.259px" y="293.91522" x="682.88391" font-family="Arial" fill="#000000">progress</text>
   <text xml:space="preserve" font-size="16.259px" y="293.91522" x="747.92047" font-family="Arial" fill="#000000">)</text>
   <path stroke-linejoin="round" d="m455.8 329.95h-398.97" stroke="#000" stroke-linecap="round" stroke-width="3.5958px" fill="none"/>
   <path d="m58.47 336.52-13.211-6.5662 13.211-6.6444v13.211z" fill-rule="evenodd"/>
   <path d="m177.29 301.03v20.011h146.41v-20.011h-146.41z" fill-rule="evenodd" fill="#fff"/>
   <text xml:space="preserve" font-size="16.259px" y="316.42789" x="177.59984" font-family="Arial" fill="#000000">RESULT </text>
   <text xml:space="preserve" font-size="16.259px" y="316.42789" x="247.63921" font-family="Arial" fill="#000000">(</text>
   <text xml:space="preserve" font-size="16.259px" y="316.42789" x="252.64203" font-family="Arial" fill="#000000">progress</text>
   <text xml:space="preserve" font-size="16.259px" y="316.42789" x="317.67859" font-family="Arial" fill="#000000">)</text>
   <text font-weight="bold" xml:space="preserve" font-size="16.259px" y="432.74326" x="686.63599" font-family="Arial" fill="#000000">. . .</text>
   <text font-weight="bold" xml:space="preserve" font-size="16.259px" y="455.25592" x="236.38289" font-family="Arial" fill="#000000">. . .</text>
  </g>
 </g>
</svg>
