<?xml version="1.0" encoding="UTF-8" standalone="no"?>
<svg xmlns="http://www.w3.org/2000/svg" version="1.1" viewBox="0 0 965.41 444.19">
 <g transform="translate(842.29 -130.81)">
  <g transform="translate(-837.15 128.76)">
   <path d="m461.82 76.449v359.66h14.149v-359.66h-14.149z" fill-rule="evenodd" fill="#fa72c6"/>
   <path d="m34.003 76.449v359.66h14.227v-359.66h-14.227z" fill-rule="evenodd" fill="#fa72c6"/>
   <path d="m908.56 76.449v359.66h14.149v-359.66h-14.149z" fill-rule="evenodd" fill="#fa72c6"/>
   <path stroke-linejoin="round" d="m48.934 151.8h398.97" stroke="#000" stroke-linecap="round" stroke-width="3.5958px" fill="none"/>
   <path d="m446.27 145.24 13.211 6.5662-13.211 6.6444v-13.211z" fill-rule="evenodd"/>
   <path d="m233.33 122.88v20.011h41.664v-20.011h-41.664z" fill-rule="evenodd" fill="#fff"/>
   <text xml:space="preserve" font-size="16.259px" y="137.57735" x="233.88148" font-family="Arial" fill="#000000">CALL</text>
   <path stroke-linejoin="round" d="m476.83 174h420.16" stroke="#000" stroke-linecap="round" stroke-width="3.5958px" fill="none"/>
   <path d="m895.35 167.44 13.211 6.5662-13.211 6.6444v-13.211z" fill-rule="evenodd"/>
   <path d="m640.83 145.08v20.011h103.73v-20.011h-103.73z" fill-rule="evenodd" fill="#fff"/>
   <text xml:space="preserve" font-size="16.259px" y="160.09" x="640.35999" font-family="Arial" fill="#000000">INVOCATION</text>
   <text xml:space="preserve" font-size="30.017px" y="33.768986" x="2.5014062" font-family="Arial" fill="#000000">Caller</text>
   <text xml:space="preserve" font-size="30.017px" y="33.768986" x="865.48651" font-family="Arial" fill="#000000">Callee</text>
   <text xml:space="preserve" font-size="30.017px" y="33.768986" x="425.23904" font-family="Arial" fill="#000000">Dealer</text>
   <path stroke-linejoin="round" d="m909.1 341.52h-420.08" stroke="#000" stroke-linecap="round" stroke-width="3.5958px" fill="none"/>
   <path d="m490.67 348.16-13.211-6.6444 13.211-6.5662v13.211z" fill-rule="evenodd"/>
   <path d="m663.19 312.6v20.011h60.19v-20.011h-60.19z" fill-rule="evenodd" fill="#fff"/>
   <text xml:space="preserve" font-size="16.259px" y="327.6842" x="662.87262" font-family="Arial" fill="#000000">ERROR</text>
   <path stroke-linejoin="round" d="m460.02 365.13h-398.97" stroke="#000" stroke-linecap="round" stroke-width="3.5958px" fill="none"/>
   <path d="m62.691 371.77-13.211-6.6444 13.211-6.5662v13.211z" fill-rule="evenodd"/>
   <path d="m224.66 336.28v20.011h60.19v-20.011h-60.19z" fill-rule="evenodd" fill="#fff"/>
   <text xml:space="preserve" font-size="16.259px" y="351.44757" x="225.12656" font-family="Arial" fill="#000000">ERROR</text>
   <path stroke-linejoin="round" d="m51.826 247.01h399.05" stroke="#000" stroke-linecap="round" stroke-width="3.5958px" fill="none"/>
   <path d="m449.24 240.37 13.211 6.6444-13.211 6.5662v-13.211z" fill-rule="evenodd"/>
   <path d="m223.33 218.09v20.011h67.616v-20.011h-67.616z" fill-rule="evenodd" fill="#fff"/>
   <text xml:space="preserve" font-size="16.259px" y="232.63078" x="223.87585" font-family="Arial" fill="#000000">CANCEL</text>
   <path stroke-linejoin="round" d="m477.46 270.62h420.08" stroke="#000" stroke-linecap="round" stroke-width="3.5958px" fill="none"/>
   <path d="m895.89 264.05 13.211 6.5662-13.211 6.5662v-13.132z" fill-rule="evenodd"/>
   <path d="m645.6 241.7v20.011h95.366v-20.011h-95.366z" fill-rule="evenodd" fill="#fff"/>
   <text xml:space="preserve" font-size="16.259px" y="256.39413" x="645.36279" font-family="Arial" fill="#000000">INTERRUPT</text>
  </g>
 </g>
</svg>
