<?xml version="1.0" encoding="UTF-8" standalone="no"?>
<svg xmlns:rdf="http://www.w3.org/1999/02/22-rdf-syntax-ns#" xmlns="http://www.w3.org/2000/svg" version="1.1" xmlns:cc="http://creativecommons.org/ns#" xmlns:dc="http://purl.org/dc/elements/1.1/" viewBox="0 0 1249.3 367.35">
<g transform="translate(1074.7 249.16)">
<g transform="translate(-1071.1 -253.27)">
<path d="m395.61 76.449v282.82h14.227v-282.82h-14.227z" fill-rule="evenodd" fill="#fa72c6"/>
<path d="m34.003 76.449v282.82h14.227v-282.82h-14.227z" fill-rule="evenodd" fill="#fa72c6"/>
<path d="m773.79 76.449v282.82h14.227v-282.82h-14.227z" fill-rule="evenodd" fill="#fa72c6"/>
<path stroke-linejoin="round" d="m48.856 122.88h335.27" stroke="#000" stroke-linecap="round" stroke-width="3.5958px" fill="none"/>
<path d="m382.4 116.32 13.211 6.5662-13.211 6.6444v-13.211z" fill-rule="evenodd"/>
<path d="m201.36 93.959v20.011h41.742v-20.011h-41.742z" fill-rule="evenodd" fill="#fff"/>
<text xml:space="preserve" font-size="16.259px" y="108.81117" x="201.3632" font-family="Arial" fill="#000000">CALL</text>
<path stroke-linejoin="round" d="m790.37 170.17h385.53" stroke="#000" stroke-linecap="round" stroke-width="3.5958px" fill="none"/>
<path d="m1174.3 163.61 13.21 6.5662-13.21 6.6444v-13.211z" fill-rule="evenodd"/>
<path d="m937.01 141.25v20.011h103.73v-20.011h-103.73z" fill-rule="evenodd" fill="#fff"/>
<text xml:space="preserve" font-size="16.259px" y="156.33789" x="936.77661" font-family="Arial" fill="#000000">INVOCATION</text>
<path stroke-linejoin="round" d="m1187.5 241.07h-385.53" stroke="#000" stroke-linecap="round" stroke-width="3.5958px" fill="none"/>
<path d="m803.58 247.72-13.211-6.6444 13.211-6.5662v13.211z" fill-rule="evenodd"/>
<path d="m917.55 212.15v20.011h142.66v-20.011h-142.66z" fill-rule="evenodd" fill="#fff"/>
<text xml:space="preserve" font-size="16.259px" y="227.62796" x="918.01605" font-family="Arial" fill="#000000">YIELD OR ERROR</text>
<path stroke-linejoin="round" d="m395.61 288.37h-335.89" stroke="#000" stroke-linecap="round" stroke-width="3.5958px" fill="none"/>
<path d="m61.441 294.93-13.211-6.5662 13.211-6.6444v13.211z" fill-rule="evenodd"/>
<path d="m146.88 259.44v20.011h150.08v-20.011h-150.08z" fill-rule="evenodd" fill="#fff"/>
<text xml:space="preserve" font-size="16.259px" y="273.90399" x="146.33226" font-family="Arial" fill="#000000">RESULT or ERROR</text>
<text xml:space="preserve" font-size="30.017px" y="33.768986" x="2.5014062" font-family="Arial" fill="#000000">Caller</text>
<text xml:space="preserve" font-size="30.017px" y="36.27039" x="1149.3961" font-family="Arial" fill="#000000">Callee</text>
<text xml:space="preserve" font-size="30.017px" y="36.27039" x="362.70389" font-family="Arial" fill="#000000">Dealer </text>
<text xml:space="preserve" font-size="30.017px" y="36.27039" x="459.00803" font-family="Arial" fill="#000000">1</text>
<path d="m1192.2 76.449v282.82h14.148v-282.82h-14.148z" fill-rule="evenodd" fill="#fa72c6"/>
<path stroke-linejoin="round" d="m412.18 146.57h347.7" stroke="#000" stroke-linecap="round" stroke-width="3.5958px" fill="none"/>
<path d="m758.24 139.92 13.211 6.6444-13.211 6.5662v-13.211z" fill-rule="evenodd"/>
<path d="m570.95 117.64v20.011h41.742v-20.011h-41.742z" fill-rule="evenodd" fill="#fff"/>
<text xml:space="preserve" font-size="16.259px" y="132.57452" x="570.32062" font-family="Arial" fill="#000000">CALL</text>
<path stroke-linejoin="round" d="m771.45 264.76h-347.7" stroke="#000" stroke-linecap="round" stroke-width="3.5958px" fill="none"/>
<path d="m425.4 271.32-13.211-6.5662 13.211-6.6444v13.211z" fill-rule="evenodd"/>
<path d="m516.77 235.84v20.011h150.08v-20.011h-150.08z" fill-rule="evenodd" fill="#fff"/>
<text xml:space="preserve" font-size="16.259px" y="251.39133" x="516.54041" font-family="Arial" fill="#000000">RESULT or ERROR</text>
<text xml:space="preserve" font-size="30.017px" y="36.27039" x="750.42188" font-family="Arial" fill="#000000">Dealer </text>
<text xml:space="preserve" font-size="30.017px" y="36.27039" x="846.72601" font-family="Arial" fill="#000000">2</text>
</g>
</g>
</svg>
