<?xml version="1.0" encoding="UTF-8" standalone="no"?>
<svg xmlns="http://www.w3.org/2000/svg" version="1.1" viewBox="0 0 1090.4 508.07">
 <g transform="translate(562.33 -368.33)">
  <g transform="translate(-554.2 376.36)">
   <path d="m227.94 3.7521v484.49h614.49v-484.49h-614.49z" fill-rule="evenodd" fill="#d9d9d9"/>
   <text xml:space="preserve" font-size="23.763px" y="45.025311" x="368.9574" font-family="Arial" fill="#000000">Physical Transport </text>
   <text xml:space="preserve" font-size="23.763px" y="45.025311" x="567.81921" font-family="Arial" fill="#000000">(</text>
   <text xml:space="preserve" font-size="23.763px" y="45.025311" x="576.57416" font-family="Arial" fill="#000000">Multiplexed</text>
   <text xml:space="preserve" font-size="23.763px" y="45.025311" x="694.1402" font-family="Arial" fill="#000000">)</text>
   <path d="m253.27 86.455v165.41h565.55v-165.41h-565.55z" fill-rule="evenodd" fill="#a6a6a6"/>
   <text xml:space="preserve" font-size="20.011px" y="123.81961" x="459.00803" font-family="Arial" fill="#ffffff">Logical Transport</text>
   <path d="m135.23 232.47c13.054 0 23.685-10.631 23.685-23.685v-69.727c0-13.054-10.631-23.607-23.685-23.607h-108.65c-13.054 0-23.685 10.553-23.685 23.607v69.727c0 13.054 10.631 23.685 23.685 23.685h108.65z" fill-rule="evenodd" fill="#bdf808"/>
   <path stroke-linejoin="round" d="m135.23 232.47c13.054 0 23.685-10.631 23.685-23.685v0-69.727c0-13.054-10.631-23.607-23.685-23.607v0h-108.65c-13.054 0-23.685 10.553-23.685 23.607v0 69.727c0 13.054 10.631 23.685 23.685 23.685v0h108.65z" stroke="#000" stroke-linecap="round" stroke-width="2.0324px" fill="none"/>
   <text font-weight="bold" xml:space="preserve" font-size="23.763px" y="181.35194" x="30.016874" font-family="Arial" fill="#000000">Endpoint</text>
   <path d="m1047.6 232.47c13.054 0 23.607-10.631 23.607-23.685v-69.727c0-13.054-10.553-23.607-23.607-23.607h-108.73c-13.054 0-23.685 10.553-23.685 23.607v69.727c0 13.054 10.631 23.685 23.685 23.685h108.73z" fill-rule="evenodd" fill="#fa72c6"/>
   <path stroke-linejoin="round" d="m1047.6 232.47c13.054 0 23.607-10.631 23.607-23.685v0-69.727c0-13.054-10.553-23.607-23.607-23.607v0h-108.73c-13.054 0-23.685 10.553-23.685 23.607v0 69.727c0 13.054 10.631 23.685 23.685 23.685v0h108.73z" stroke="#000" stroke-linecap="round" stroke-width="2.0324px" fill="none"/>
   <text font-weight="bold" xml:space="preserve" font-size="23.763px" y="181.35194" x="955.53717" font-family="Arial" fill="#ffffff">Router</text>
   <path d="m158.92 150.32v47.292h756.28v-47.292h-756.28z" fill-rule="evenodd" fill="#fa72c6"/>
   <path stroke-linejoin="round" d="m158.92 197.61h756.28v-47.292h-756.28v47.292z" stroke="#000" stroke-linecap="round" stroke-width="1.1725px" fill="none"/>
   <text xml:space="preserve" font-size="23.763px" y="181.35194" x="495.27844" font-family="Arial" fill="#ffffff">Session</text>
   <path d="m135.23 420.31c13.054 0 23.685-10.553 23.685-23.607v-69.727c0-13.054-10.631-23.607-23.685-23.607h-108.65c-13.054 0-23.685 10.553-23.685 23.607v69.727c0 13.054 10.631 23.607 23.685 23.607h108.65z" fill-rule="evenodd" fill="#bdf808"/>
   <path stroke-linejoin="round" d="m135.23 420.31c13.054 0 23.685-10.553 23.685-23.607v0-69.727c0-13.054-10.631-23.607-23.685-23.607v0h-108.65c-13.054 0-23.685 10.553-23.685 23.607v0 69.727c0 13.054 10.631 23.607 23.685 23.607v0h108.65z" stroke="#000" stroke-linecap="round" stroke-width="2.0324px" fill="none"/>
   <text font-weight="bold" xml:space="preserve" font-size="23.763px" y="368.9574" x="30.016874" font-family="Arial" fill="#000000">Endpoint</text>
   <path d="m1047.6 420.31c13.054 0 23.607-10.553 23.607-23.607v-69.727c0-13.054-10.553-23.607-23.607-23.607h-108.73c-13.054 0-23.685 10.553-23.685 23.607v69.727c0 13.054 10.631 23.607 23.685 23.607h108.73z" fill-rule="evenodd" fill="#fa72c6"/>
   <path stroke-linejoin="round" d="m1047.6 420.31c13.054 0 23.607-10.553 23.607-23.607v0-69.727c0-13.054-10.553-23.607-23.607-23.607v0h-108.73c-13.054 0-23.685 10.553-23.685 23.607v69.727c0 13.054 10.631 23.607 23.685 23.607v0h108.73z" stroke="#000" stroke-linecap="round" stroke-width="2.0324px" fill="none"/>
   <text font-weight="bold" xml:space="preserve" font-size="23.763px" y="368.9574" x="955.53717" font-family="Arial" fill="#ffffff">Router</text>
   <path stroke-linejoin="round" d="m253.27 86.455h565.55" stroke="#000" stroke-linecap="round" stroke-width="2.0324px" fill="none"/>
   <path stroke-linejoin="round" d="m253.27 251.86h565.55" stroke="#000" stroke-linecap="round" stroke-width="2.0324px" fill="none"/>
   <path d="m251.55 275.55v165.41h565.55v-165.41h-565.55z" fill-rule="evenodd" fill="#a6a6a6"/>
   <text xml:space="preserve" font-size="20.011px" y="313.92648" x="456.50662" font-family="Arial" fill="#ffffff">Logical Transport</text>
   <path stroke-linejoin="round" d="m251.55 275.55h565.55" stroke="#000" stroke-linecap="round" stroke-width="2.0324px" fill="none"/>
   <path stroke-linejoin="round" d="m251.55 440.95h565.55" stroke="#000" stroke-linecap="round" stroke-width="2.0324px" fill="none"/>
   <path d="m158.92 338.24v47.214h756.28v-47.214h-756.28z" fill-rule="evenodd" fill="#fa72c6"/>
   <path stroke-linejoin="round" d="m158.92 385.45h756.28v-47.214h-756.28v47.214z" stroke="#000" stroke-linecap="round" stroke-width="1.1725px" fill="none"/>
   <text xml:space="preserve" font-size="23.763px" y="368.9574" x="495.27844" font-family="Arial" fill="#ffffff">Session</text>
   <path stroke-linejoin="round" d="m227.94 488.24h614.49" stroke="#000" stroke-linecap="round" stroke-width="3.5958px" fill="none"/>
   <path stroke-linejoin="round" d="m227.94 3.7521h614.49" stroke="#000" stroke-linecap="round" stroke-width="3.5958px" fill="none"/>
  </g>
 </g>
</svg>
