<?xml version="1.0" encoding="UTF-8" standalone="no"?>
<svg xmlns:rdf="http://www.w3.org/1999/02/22-rdf-syntax-ns#" xmlns="http://www.w3.org/2000/svg" version="1.1" xmlns:cc="http://creativecommons.org/ns#" xmlns:dc="http://purl.org/dc/elements/1.1/" viewBox="0 0 1133.8 821.5">
<g transform="translate(753.62 254.55)">
<g transform="translate(-745.53 -246.46)">
<path d="m230.78 193.75v165.31h614.14v-165.31h-614.14z" fill-rule="evenodd" fill="#bfbfbf"/>
<text xml:space="preserve" font-size="23.75px" y="235" x="487.5" font-family="Arial" fill="#000000">Transport</text>
<path d="m136.25 339.69c13.047 0 23.672-10.625 23.672-23.672v-69.688c0-13.047-10.625-23.594-23.672-23.594h-108.67c-13.047 0-23.594 10.547-23.594 23.594v69.688c0 13.047 10.547 23.672 23.594 23.672h108.67z" fill-rule="evenodd" fill="#bdf808"/>
<path stroke-linejoin="round" d="m136.25 339.69c13.047 0 23.672-10.625 23.672-23.672v0-69.688c0-13.047-10.625-23.594-23.672-23.594v0h-108.67c-13.047 0-23.594 10.547-23.594 23.594v0 69.688c0 13.047 10.547 23.672 23.594 23.672v0h108.67z" stroke="#000" stroke-linecap="round" stroke-width="2.0312px" fill="none"/>
<text font-weight="bold" xml:space="preserve" font-size="23.75px" y="288.75" x="50" font-family="Arial" fill="#000000">Client</text>
<path d="m1048.1 339.69c12.969 0 23.594-10.625 23.594-23.672v-69.688c0-13.047-10.625-23.594-23.594-23.594h-108.67c-13.047 0-23.672 10.547-23.672 23.594v69.688c0 13.047 10.625 23.672 23.672 23.672h108.67z" fill-rule="evenodd" fill="#fa72c6"/>
<path stroke-linejoin="round" d="m1048.1 339.69c12.969 0 23.594-10.625 23.594-23.672v0-69.688c0-13.047-10.625-23.594-23.594-23.594v0h-108.67c-13.047 0-23.672 10.547-23.672 23.594v0 69.688c0 13.047 10.625 23.672 23.672 23.672h108.67z" stroke="#000" stroke-linecap="round" stroke-width="2.0312px" fill="none"/>
<text font-weight="bold" xml:space="preserve" font-size="23.75px" y="288.75" x="956.25" font-family="Arial" fill="#ffffff">Router</text>
<path d="m159.92 257.58v47.266h755.86v-47.266h-755.86z" fill-rule="evenodd" fill="#fa72c6"/>
<path stroke-linejoin="round" d="m159.92 304.84h755.86v-47.266h-755.86v47.266z" stroke="#000" stroke-linecap="round" stroke-width="1.1719px" fill="none"/>
<text xml:space="preserve" font-size="23.75px" y="288.75" x="496.25" font-family="Arial" fill="#ffffff">Session</text>
<path d="m409.3 443.98v56.953h253.36v-56.953h-253.36z" fill-rule="evenodd" fill="#fff"/>
<path stroke-linejoin="round" d="m409.3 500.94h253.36v-56.953h-253.36v56.953z" stroke="#000" stroke-linecap="round" stroke-width=".39062px" fill="none"/>
<text xml:space="preserve" font-size="23.75px" y="480" x="511.25" font-family="Arial" fill="#000000">Peer</text>
<path stroke-linejoin="round" d="m230.78 193.75h614.14" stroke="#000" stroke-linecap="round" stroke-width="3.5938px" fill="none"/>
<path stroke-linejoin="round" d="m670.78 469.22 322.97-129.53" stroke="#000" stroke-linecap="round" stroke-width=".39062px" fill="none"/>
<path d="m662.66 472.5 8.5938-9.6875c-0.3125 4.0625 1.25 8.0469 4.2969 10.703l-12.89-1.01z" fill-rule="evenodd"/>
<path d="m811.17 405.47 28.906-11.562-8.9062-22.266-28.906 11.562 8.9063 22.266z" fill-rule="evenodd" fill="#fff"/>
<text xml:space="preserve" transform="matrix(.93358 -.35837 .35837 .93358 -89.63 316.4)" font-size="20px" y="400" x="808.75" font-family="Arial" fill="#000000">i</text>
<text xml:space="preserve" transform="matrix(.93358 -.35837 .35837 .93358 -88.933 317.66)" font-size="20px" y="398.75" x="812.5" font-family="Arial" fill="#000000">s</text>
<text xml:space="preserve" transform="matrix(.93358 -.35837 .35837 .93358 -86.925 320.99)" font-size="20px" y="395" x="822.5" font-family="Arial" fill="#000000"> </text>
<text xml:space="preserve" transform="matrix(.93358 -.35837 .35837 .93358 -85.697 322.62)" font-size="20px" y="392.5" x="827.5" font-family="Arial" fill="#000000">a</text>
<path stroke-linejoin="round" d="m401.17 469.22-319.22-129.53" stroke="#000" stroke-linecap="round" stroke-width=".39062px" fill="none"/>
<path d="m409.3 472.5-12.891 1.0156c3.0469-2.7344 4.6094-6.7187 4.2969-10.781l8.5938 9.7656z" fill-rule="evenodd"/>
<path d="m233.83 393.83 28.828 11.719 8.9844-22.266-28.828-11.719-8.9844 22.266z" fill-rule="evenodd" fill="#fff"/>
<text xml:space="preserve" transform="matrix(.92050 .39073 -.39073 .92050 170.68 -61.406)" font-size="20px" y="388.75" x="236.25" font-family="Arial" fill="#000000">i</text>
<text xml:space="preserve" transform="matrix(.92050 .39073 -.39073 .92050 171.46 -62.772)" font-size="20px" y="390" x="240" font-family="Arial" fill="#000000">s</text>
<text xml:space="preserve" transform="matrix(.92050 .39073 -.39073 .92050 173.72 -66.382)" font-size="20px" y="393.75" x="250" font-family="Arial" fill="#000000"> </text>
<text xml:space="preserve" transform="matrix(.92050 .39073 -.39073 .92050 175.1 -68.136)" font-size="20px" y="396.25" x="255" font-family="Arial" fill="#000000">a</text>
<path d="m2.1094 526.8c0-16.953 35.938-30.703 80.312-30.703 44.375 0 80.313 13.75 80.313 30.703s-35.938 30.703-80.313 30.703-80.312-13.75-80.312-30.703" fill-rule="evenodd" fill="#fff"/>
<path stroke-linejoin="round" d="m2.1094 526.8c0-16.953 35.938-30.703 80.312-30.703 44.375 0 80.313 13.75 80.313 30.703v0c0 16.953-35.938 30.703-80.313 30.703s-80.312-13.75-80.312-30.703" stroke="#000" stroke-linecap="round" stroke-width=".39062px" fill="none"/>
<text xml:space="preserve" font-size="23.75px" font-style="italic" y="533.75" x="52.5" font-family="Arial" fill="#000000">Caller</text>
<path d="m2.1094 576.41c0-16.953 35.938-30.703 80.312-30.703 44.375 0 80.313 13.75 80.313 30.703s-35.938 30.703-80.313 30.703-80.312-13.75-80.312-30.703" fill-rule="evenodd" fill="#fff"/>
<path stroke-linejoin="round" d="m2.1094 576.41c0-16.953 35.938-30.703 80.312-30.703 44.375 0 80.313 13.75 80.313 30.703v0c0 16.953-35.938 30.703-80.313 30.703s-80.312-13.75-80.312-30.703" stroke="#000" stroke-linecap="round" stroke-width=".39062px" fill="none"/>
<text xml:space="preserve" font-size="23.75px" font-style="italic" y="583.75" x="48.75" font-family="Arial" fill="#000000">Callee</text>
<path d="m2.1094 626.02c0-16.953 35.938-30.703 80.312-30.703 44.375 0 80.313 13.75 80.313 30.703s-35.938 30.703-80.313 30.703-80.312-13.75-80.312-30.703" fill-rule="evenodd" fill="#fff"/>
<path stroke-linejoin="round" d="m2.1094 626.02c0-16.953 35.938-30.703 80.312-30.703 44.375 0 80.313 13.75 80.313 30.703v0c0 16.953-35.938 30.703-80.313 30.703s-80.312-13.75-80.312-30.703" stroke="#000" stroke-linecap="round" stroke-width=".39062px" fill="none"/>
<text xml:space="preserve" font-size="23.75px" font-style="italic" y="632.5" x="33.75" font-family="Arial" fill="#000000">Publisher</text>
<path d="m2.1094 677.97c0-16.953 35.938-30.703 80.312-30.703 44.375 0 80.313 13.75 80.313 30.703s-35.938 30.703-80.313 30.703-80.312-13.75-80.312-30.703" fill-rule="evenodd" fill="#fff"/>
<path stroke-linejoin="round" d="m2.1094 677.97c0-16.953 35.938-30.703 80.312-30.703 44.375 0 80.313 13.75 80.313 30.703v0c0 16.953-35.938 30.703-80.313 30.703s-80.312-13.75-80.312-30.703" stroke="#000" stroke-linecap="round" stroke-width=".39062px" fill="none"/>
<text xml:space="preserve" font-size="23.75px" font-style="italic" y="685" x="26.25" font-family="Arial" fill="#000000">Subscriber</text>
<path stroke-linejoin="round" d="m230.78 359.06h614.14" stroke="#000" stroke-linecap="round" stroke-width="3.5938px" fill="none"/>
<path d="m913.91 623.67c0-16.953 35.938-30.703 80.312-30.703 44.375 0 80.312 13.75 80.312 30.703s-35.937 30.703-80.312 30.703-80.312-13.75-80.312-30.703" fill-rule="evenodd" fill="#fff"/>
<path stroke-linejoin="round" d="m913.91 623.67c0-16.953 35.938-30.703 80.312-30.703 44.375 0 80.312 13.75 80.312 30.703v0c0 16.953-35.937 30.703-80.312 30.703s-80.312-13.75-80.312-30.703" stroke="#000" stroke-linecap="round" stroke-width=".39062px" fill="none"/>
<text xml:space="preserve" font-size="23.75px" font-style="italic" y="631.25" x="960" font-family="Arial" fill="#000000">Dealer</text>
<path d="m913.91 673.28c0-16.953 35.938-30.703 80.312-30.703 44.375 0 80.312 13.75 80.312 30.703s-35.937 30.703-80.312 30.703-80.312-13.75-80.312-30.703" fill-rule="evenodd" fill="#fff"/>
<path stroke-linejoin="round" d="m913.91 673.28c0-16.953 35.938-30.703 80.312-30.703 44.375 0 80.312 13.75 80.312 30.703v0c0 16.953-35.937 30.703-80.312 30.703s-80.312-13.75-80.312-30.703" stroke="#000" stroke-linecap="round" stroke-width=".39062px" fill="none"/>
<text xml:space="preserve" font-size="23.75px" font-style="italic" y="680" x="960" font-family="Arial" fill="#000000">Broker</text>
<path d="m417.89 746.25v56.953h253.28v-56.953h-253.28z" fill-rule="evenodd" fill="#fff"/>
<path stroke-linejoin="round" d="m417.89 803.2h253.28v-56.953h-253.28v56.953z" stroke="#000" stroke-linecap="round" stroke-width=".39062px" fill="none"/>
<text xml:space="preserve" font-size="23.75px" y="781.25" x="520" font-family="Arial" fill="#000000">Role</text>
<path stroke-linejoin="round" d="m540.23 500.94v245.31" stroke="#000" stroke-linecap="round" stroke-width=".39062px" fill="none"/>
<path d="m515.78 611.56v24.062h48.906v-24.062h-48.906z" fill-rule="evenodd" fill="#fff"/>
<text xml:space="preserve" font-size="20px" y="630" x="516.25" font-family="Arial" fill="#000000">has a</text>
<path stroke-linejoin="round" d="m409.22 773.05-326.8-64.38" stroke="#000" stroke-linecap="round" stroke-width=".39062px" fill="none"/>
<path d="m417.89 774.69-12.5 3.5156c2.5-3.2812 3.2813-7.5 2.1875-11.406l10.312 7.8906z" fill-rule="evenodd"/>
<path d="m236.17 731.95 30.547 6.0156 4.6875-23.594-30.547-6.0156-4.6875 23.594z" fill-rule="evenodd" fill="#fff"/>
<text xml:space="preserve" transform="matrix(.97815 .20791 -.20791 .97815 156.19 -33.509)" font-size="20px" y="726.25" x="237.5" font-family="Arial" fill="#000000">i</text>
<text xml:space="preserve" transform="matrix(.97815 .20791 -.20791 .97815 156.27 -34.288)" font-size="20px" y="726.25" x="241.25" font-family="Arial" fill="#000000">s</text>
<text xml:space="preserve" transform="matrix(.97815 .20791 -.20791 .97815 157.01 -36.313)" font-size="20px" y="728.75" x="251.25" font-family="Arial" fill="#000000"> </text>
<text xml:space="preserve" transform="matrix(.97815 .20791 -.20791 .97815 157.4 -37.585)" font-size="20px" y="730" x="257.5" font-family="Arial" fill="#000000">a</text>
<path stroke-linejoin="round" d="m679.77 772.81 314.45-68.83" stroke="#000" stroke-linecap="round" stroke-width=".39062px" fill="none"/>
<path d="m671.17 774.69 10.078-8.125c-0.9375 3.9844-0.0781 8.125 2.5 11.328l-12.578-3.2031z" fill-rule="evenodd"/>
<path d="m816.02 735.94 30.391-6.6406-5.0781-23.438-30.391 6.6406 5.0781 23.438z" fill-rule="evenodd" fill="#fff"/>
<text xml:space="preserve" transform="matrix(.97815 -.20791 .20791 .97815 -133.97 185.4)" font-size="20px" y="730" x="815" font-family="Arial" fill="#000000">i</text>
<text xml:space="preserve" transform="matrix(.97815 -.20791 .20791 .97815 -133.62 186.15)" font-size="20px" y="728.75" x="818.75" font-family="Arial" fill="#000000">s</text>
<text xml:space="preserve" transform="matrix(.97815 -.20791 .20791 .97815 -133.15 188.2)" font-size="20px" y="727.5" x="828.75" font-family="Arial" fill="#000000"> </text>
<text xml:space="preserve" transform="matrix(.97815 -.20791 .20791 .97815 -132.78 189.22)" font-size="20px" y="726.25" x="833.75" font-family="Arial" fill="#000000">a</text>
<path stroke-linejoin="round" d="m994.22 584.14-0.47-244.45" stroke="#000" stroke-linecap="round" stroke-width=".39062px" fill="none"/>
<path d="m994.22 592.97-5.7812-11.562c3.5938 1.7969 7.9688 1.7969 11.562-0.0781l-5.7812 11.641z" fill-rule="evenodd"/>
<path d="m1000.9 427.97 0.078 76.719 24.062-0.0781-0.1562-76.719-23.984 0.0781z" fill-rule="evenodd" fill="#fff"/>
<text xml:space="preserve" transform="matrix(0 1 -1 0 1433.8 -578.75)" font-size="20px" y="427.5" x="1006.25" font-family="Arial" fill="#000000">s</text>
<text xml:space="preserve" transform="matrix(0 1 -1 0 1443.8 -568.75)" font-size="20px" y="437.5" x="1006.25" font-family="Arial" fill="#000000">u</text>
<text xml:space="preserve" transform="matrix(0,1,-1,0,1455,-557.5)" font-size="20px" y="448.75" x="1006.25" font-family="Arial" fill="#000000">p</text>
<text xml:space="preserve" transform="matrix(0 1 -1 0 1466.2 -546.25)" font-size="20px" y="460" x="1006.25" font-family="Arial" fill="#000000">p</text>
<text xml:space="preserve" transform="matrix(0,1,-1,0,1477.5,-535)" font-size="20px" y="471.25" x="1006.25" font-family="Arial" fill="#000000">o</text>
<text xml:space="preserve" transform="matrix(0,1,-1,0,1490,-525)" font-size="20px" y="482.5" x="1007.5" font-family="Arial" fill="#000000">r</text>
<text xml:space="preserve" transform="matrix(0 1 -1 0 1496.2 -518.75)" font-size="20px" y="488.75" x="1007.5" font-family="Arial" fill="#000000">t</text>
<text xml:space="preserve" transform="matrix(0,1,-1,0,1502.5,-512.5)" font-size="20px" y="495" x="1007.5" font-family="Arial" fill="#000000">s</text>
<path stroke-linejoin="round" d="m82.422 487.34-0.469-147.65" stroke="#000" stroke-linecap="round" stroke-width=".39062px" fill="none"/>
<path d="m82.422 496.09-5.86-11.56c3.6719 1.7969 7.9688 1.7969 11.641-0.0781l-5.7812 11.641z" fill-rule="evenodd"/>
<path d="m88.984 379.53 0.23438 76.719 23.984-0.0781-0.23437-76.719-23.984 0.0781z" fill-rule="evenodd" fill="#fff"/>
<text xml:space="preserve" transform="matrix(0,1,-1,0,475,285)" font-size="20px" y="380" x="95" font-family="Arial" fill="#000000">s</text>
<text xml:space="preserve" transform="matrix(0,1,-1,0,485,295)" font-size="20px" y="390" x="95" font-family="Arial" fill="#000000">u</text>
<text xml:space="preserve" transform="matrix(0,1,-1,0,495,305)" font-size="20px" y="400" x="95" font-family="Arial" fill="#000000">p</text>
<text xml:space="preserve" transform="matrix(0,1,-1,0,506.25,316.25)" font-size="20px" y="411.25" x="95" font-family="Arial" fill="#000000">p</text>
<text xml:space="preserve" transform="matrix(0,1,-1,0,517.5,327.5)" font-size="20px" y="422.5" x="95" font-family="Arial" fill="#000000">o</text>
<text xml:space="preserve" transform="matrix(0,1,-1,0,528.75,338.75)" font-size="20px" y="433.75" x="95" font-family="Arial" fill="#000000">r</text>
<text xml:space="preserve" transform="matrix(0,1,-1,0,535,345)" font-size="20px" y="440" x="95" font-family="Arial" fill="#000000">t</text>
<text xml:space="preserve" transform="matrix(0,1,-1,0,541.25,351.25)" font-size="20px" y="446.25" x="95" font-family="Arial" fill="#000000">s</text>
<path stroke-linejoin="round" d="m724.92 257.58c21.41-50.39-2.19-108.52-52.58-129.92-50.39-21.33-108.59 2.26-129.92 52.65-0.70313 1.6406-1.3281 3.3594-1.9531 5.0781" stroke="#000" stroke-linecap="round" stroke-width=".39062px" fill="none"/>
<path d="m726.64 253.59c-2.1875-0.9375-4.7656 0.0781-5.7031 2.2656-0.9375 2.2656 0.0781 4.7656 2.3438 5.7031 2.1875 0.9375 4.7656-0.0781 5.7031-2.2656 0.9375-2.2656-0.15626-4.7656-2.3438-5.7031" fill-rule="evenodd"/>
<path d="m537.81 193.75-2.0312-12.812c2.8906 2.8125 7.0312 4.1406 11.016 3.4375l-8.9844 9.375z" fill-rule="evenodd"/>
<path d="m659.61 134.53v23.984h83.438v-23.984h-83.438z" fill-rule="evenodd" fill="#fff"/>
<text xml:space="preserve" font-size="20px" y="152.5" x="660" font-family="Arial" fill="#000000">runs over</text>
<path stroke-linejoin="round" d="m81.953 222.73c199.22-251.79 564.85-294.37 816.64-95.15 32.969 26.094 63.047 55.703 89.688 88.281" stroke="#000" stroke-linecap="round" stroke-width=".39062px" fill="none"/>
<path d="m993.75 222.73-11.797-5.3906c3.9844-0.85937 7.3438-3.5938 9.0625-7.2656l2.7344 12.656z" fill-rule="evenodd"/>
<path d="m190.94 63.672v23.984h127.89v-23.984h-127.89z" fill-rule="evenodd" fill="#fff"/>
<text xml:space="preserve" font-size="20px" y="81.25" x="191.25" font-family="Arial" fill="#000000">opens session</text>
<path d="m1091.1 252.19c13.047 0 23.594-10.547 23.594-23.594v-11.25c0-13.047-10.547-23.594-23.594-23.594h-56.719c-13.047 0-23.594 10.547-23.594 23.594v11.25c0 13.047 10.547 23.594 23.594 23.594h56.719z" fill-rule="evenodd" fill="#7395bf"/>
<path stroke-linejoin="round" d="m1091.1 252.19c13.047 0 23.594-10.547 23.594-23.594v0-11.25c0-13.047-10.547-23.594-23.594-23.594h-56.719c-13.047 0-23.594 10.547-23.594 23.594v0 11.25c0 13.047 10.547 23.594 23.594 23.594h56.719z" stroke="#000" stroke-linecap="round" stroke-width="2.0312px" fill="none"/>
<text font-weight="bold" xml:space="preserve" font-size="20px" y="228.75" x="1032.5" font-family="Arial" fill="#ffffff">Realm</text>
<path stroke-linejoin="round" d="m869.06 257.58c-20-52.734 6.5625-111.64 59.297-131.56 52.734-20 111.64 6.5625 131.64 59.297v0.0781" stroke="#000" stroke-linecap="round" stroke-width=".39062px" fill="none"/>
<path d="m867.5 253.52c2.2656-0.85937 4.7656 0.3125 5.625 2.5 0.85938 2.2656-0.3125 4.7656-2.5781 5.625-2.1875 0.85938-4.6875-0.23437-5.5469-2.5-0.85938-2.2656 0.23438-4.7656 2.5-5.625" fill-rule="evenodd"/>
<path d="m1062.7 193.75 1.875-12.812c-2.8906 2.8125-6.9532 4.2188-11.016 3.5938l9.1406 9.2188z" fill-rule="evenodd"/>
<path d="m846.09 134.14v24.062h98.984v-24.062h-98.984z" fill-rule="evenodd" fill="#fff"/>
<text xml:space="preserve" font-size="20px" y="152.5" x="846.25" font-family="Arial" fill="#000000">attached to</text>
</g>
</g>
</svg>
