<?xml version="1.0" encoding="UTF-8" standalone="no"?>
<svg xmlns="http://www.w3.org/2000/svg" version="1.1" viewBox="0 0 1391.3 913.79">
<g transform="translate(192.77 135.97)">
<g transform="translate(-184.68 -127.87)">
<path stroke-linejoin="round" d="m1231.2 857.75c13.054 0 23.607-10.631 23.607-23.685v-756.28c0-13.054-10.553-23.685-23.607-23.685v0h-179.63c-13.054 0-23.607 10.631-23.607 23.685v0 756.28c0 13.054 10.553 23.685 23.607 23.685v0h179.63z" stroke="#000" stroke-linecap="round" stroke-width="1.1725px" fill="none"/>
<path stroke-linejoin="round" d="m333 857.75c13.054 0 23.607-10.631 23.607-23.685v-756.28c0-13.054-10.553-23.685-23.607-23.685v0h-212.7c-13.054 0-23.685 10.631-23.685 23.685v0 756.28c0 13.054 10.631 23.685 23.685 23.685v0h212.7z" stroke="#000" stroke-linecap="round" stroke-width="1.1725px" fill="none"/>
<path d="m384.98 77.778v756.28h614.56v-756.28h-614.56z" fill-rule="evenodd" fill="#bfbfbf"/>
<text xml:space="preserve" font-size="23.763px" y="118.81679" x="642.86139" font-family="Arial" fill="#000000">Transport</text>
<path d="m290.48 243.18c13.054 0 23.607-10.553 23.607-23.607v-69.727c0-13.054-10.553-23.685-23.607-23.685h-108.73c-13.054 0-23.607 10.631-23.607 23.685v69.727c0 13.054 10.553 23.607 23.607 23.607h108.73z" fill-rule="evenodd" fill="#bdf808"/>
<path stroke-linejoin="round" d="m290.48 243.18c13.054 0 23.607-10.553 23.607-23.607v0-69.727c0-13.054-10.553-23.685-23.607-23.685v0h-108.73c-13.054 0-23.607 10.631-23.607 23.685v0 69.727c0 13.054 10.553 23.607 23.607 23.607v0h108.73z" stroke="#000" stroke-linecap="round" stroke-width="2.0324px" fill="none"/>
<text xml:space="preserve" font-size="23.763px" y="191.35757" x="190.10687" font-family="Arial" fill="#000000">Endpoint</text>
<path d="m1202.8 243.18c13.054 0 23.607-10.553 23.607-23.607v-69.727c0-13.054-10.553-23.685-23.607-23.685h-108.73c-13.054 0-23.607 10.631-23.607 23.685v69.727c0 13.054 10.553 23.607 23.607 23.607h108.73z" fill-rule="evenodd" fill="#fa72c6"/>
<path stroke-linejoin="round" d="m1202.8 243.18c13.054 0 23.607-10.553 23.607-23.607v0-69.727c0-13.054-10.553-23.685-23.607-23.685v0h-108.73c-13.054 0-23.607 10.631-23.607 23.685v69.727c0 13.054 10.553 23.607 23.607 23.607v0h108.73z" stroke="#000" stroke-linecap="round" stroke-width="2.0324px" fill="none"/>
<text xml:space="preserve" font-size="23.763px" y="191.35757" x="1113.1259" font-family="Arial" fill="#ffffff">Router</text>
<path d="m314.08 161.03v47.292h756.36v-47.292h-756.36z" fill-rule="evenodd" fill="#fa72c6"/>
<path stroke-linejoin="round" d="m314.08 208.32h756.36v-47.292h-756.36v47.292z" stroke="#000" stroke-linecap="round" stroke-width="1.1725px" fill="none"/>
<text xml:space="preserve" font-size="23.763px" y="191.35757" x="650.3656" font-family="Arial" fill="#ffffff">Session</text>
<text xml:space="preserve" font-size="23.763px" y="890.50061" x="200.1125" font-family="Arial" fill="#000000">Node</text>
<text xml:space="preserve" font-size="23.763px" y="890.50061" x="1113.1259" font-family="Arial" fill="#000000">Node</text>
<path d="m290.48 431.1c13.054 0 23.607-10.553 23.607-23.607v-69.727c0-13.054-10.553-23.685-23.607-23.685h-108.73c-13.054 0-23.607 10.631-23.607 23.685v69.727c0 13.054 10.553 23.607 23.607 23.607h108.73z" fill-rule="evenodd" fill="#bdf808"/>
<path stroke-linejoin="round" d="m290.48 431.1c13.054 0 23.607-10.553 23.607-23.607v0-69.727c0-13.054-10.553-23.685-23.607-23.685v0h-108.73c-13.054 0-23.607 10.631-23.607 23.685v0 69.727c0 13.054 10.553 23.607 23.607 23.607v0h108.73z" stroke="#000" stroke-linecap="round" stroke-width="2.0324px" fill="none"/>
<text xml:space="preserve" font-size="23.763px" y="378.96304" x="190.10687" font-family="Arial" fill="#000000">Endpoint</text>
<path d="m1202.8 431.1c13.054 0 23.607-10.553 23.607-23.607v-69.727c0-13.054-10.553-23.685-23.607-23.685h-108.73c-13.054 0-23.607 10.631-23.607 23.685v69.727c0 13.054 10.553 23.607 23.607 23.607h108.73z" fill-rule="evenodd" fill="#fa72c6"/>
<path stroke-linejoin="round" d="m1202.8 431.1c13.054 0 23.607-10.553 23.607-23.607v0-69.727c0-13.054-10.553-23.685-23.607-23.685v0h-108.73c-13.054 0-23.607 10.631-23.607 23.685v0 69.727c0 13.054 10.553 23.607 23.607 23.607v0h108.73z" stroke="#000" stroke-linecap="round" stroke-width="2.0324px" fill="none"/>
<text xml:space="preserve" font-size="23.763px" y="378.96304" x="1113.1259" font-family="Arial" fill="#ffffff">Router</text>
<path d="m314.08 348.95v47.292h756.36v-47.292h-756.36z" fill-rule="evenodd" fill="#fa72c6"/>
<path stroke-linejoin="round" d="m314.08 396.24h756.36v-47.292h-756.36v47.292z" stroke="#000" stroke-linecap="round" stroke-width="1.1725px" fill="none"/>
<text xml:space="preserve" font-size="23.763px" y="378.96304" x="650.3656" font-family="Arial" fill="#ffffff">Session</text>
<path d="m1202.8 621.36c13.054 0 23.607-10.553 23.607-23.607v-69.727c0-13.054-10.553-23.685-23.607-23.685h-108.73c-13.054 0-23.607 10.631-23.607 23.685v69.727c0 13.054 10.553 23.607 23.607 23.607h108.73z" fill-rule="evenodd" fill="#bdf808"/>
<path stroke-linejoin="round" d="m1202.8 621.36c13.054 0 23.607-10.553 23.607-23.607v0-69.727c0-13.054-10.553-23.685-23.607-23.685v0h-108.73c-13.054 0-23.607 10.631-23.607 23.685v69.727c0 13.054 10.553 23.607 23.607 23.607v0h108.73z" stroke="#000" stroke-linecap="round" stroke-width="2.0324px" fill="none"/>
<text xml:space="preserve" font-size="23.763px" y="570.32062" x="1101.8694" font-family="Arial" fill="#000000">Endpoint</text>
<path d="m290.48 621.36c13.054 0 23.607-10.553 23.607-23.607v-69.727c0-13.054-10.553-23.685-23.607-23.685h-108.73c-13.054 0-23.607 10.631-23.607 23.685v69.727c0 13.054 10.553 23.607 23.607 23.607h108.73z" fill-rule="evenodd" fill="#fa72c6"/>
<path stroke-linejoin="round" d="m290.48 621.36c13.054 0 23.607-10.553 23.607-23.607v0-69.727c0-13.054-10.553-23.685-23.607-23.685h-108.73c-13.054 0-23.607 10.631-23.607 23.685v0 69.727c0 13.054 10.553 23.607 23.607 23.607v0h108.73z" stroke="#000" stroke-linecap="round" stroke-width="2.0324px" fill="none"/>
<text xml:space="preserve" font-size="23.763px" y="570.32062" x="201.3632" font-family="Arial" fill="#ffffff">Router</text>
<path d="m314.08 539.21v47.292h756.36v-47.292h-756.36z" fill-rule="evenodd" fill="#fa72c6"/>
<path stroke-linejoin="round" d="m314.08 586.5h756.36v-47.292h-756.36v47.292z" stroke="#000" stroke-linecap="round" stroke-width="1.1725px" fill="none"/>
<text xml:space="preserve" font-size="23.763px" y="570.32062" x="650.3656" font-family="Arial" fill="#ffffff">Session</text>
<path stroke-linejoin="round" d="m148.68 819.91h-7.426c-8.9894 0-16.259-7.2697-16.259-16.259v0-331.51c0-8.9894-7.2697-16.259-16.181-16.259v0c8.9113 0 16.181-7.2697 16.181-16.181v0-322.06c0-8.9894 7.2697-16.259 16.259-16.259v0h7.426" stroke="#000" stroke-linecap="round" stroke-width=".39084px" fill="none"/>
<text xml:space="preserve" font-size="23.763px" y="462.76016" x="20.01125" font-family="Arial" fill="#000000">Peers</text>
<path stroke-linejoin="round" d="m167.59 39.944 68.476 86.22" stroke="#000" stroke-linecap="round" stroke-width=".39084px" fill="none"/>
<path d="m2.1106 2.1106v75.668h330.89v-75.668h-330.89z" fill-rule="evenodd" fill="#fff"/>
<path stroke-linejoin="round" d="m2.1106 77.778h330.89v-75.668h-330.89v75.668z" stroke="#000" stroke-linecap="round" stroke-width=".39084px" fill="none"/>
<text font-weight="bold" xml:space="preserve" font-size="16.259px" y="25.014063" x="26.264765" font-family="Arial" fill="#000000">Endpoints </text>
<text xml:space="preserve" font-size="16.259px" y="25.014063" x="112.56328" font-family="Arial" fill="#000000">support one or more of the </text>
<text xml:space="preserve" font-size="16.259px" y="45.025311" x="38.771797" font-family="Arial" fill="#000000">Roles</text>
<text xml:space="preserve" font-size="16.259px" y="45.025311" x="81.2957" font-family="Arial" fill="#000000">: </text>
<text font-weight="bold" xml:space="preserve" font-size="16.259px" y="45.025311" x="90.050621" font-family="Arial" fill="#000000">Caller</text>
<text xml:space="preserve" font-size="16.259px" y="45.025311" x="136.32664" font-family="Arial" fill="#000000">, </text>
<text font-weight="bold" xml:space="preserve" font-size="16.259px" y="45.025311" x="146.33226" font-family="Arial" fill="#000000">Callee</text>
<text xml:space="preserve" font-size="16.259px" y="45.025311" x="195.10968" font-family="Arial" fill="#000000">, </text>
<text font-weight="bold" xml:space="preserve" font-size="16.259px" y="45.025311" x="205.11531" font-family="Arial" fill="#000000">Subscriber</text>
<text xml:space="preserve" font-size="16.259px" y="45.025311" x="291.41382" font-family="Arial" fill="#000000">, </text>
<text font-weight="bold" xml:space="preserve" font-size="16.259px" y="65.03656" x="130.07312" font-family="Arial" fill="#000000">Publisher</text>
<path stroke-linejoin="round" d="m1216.9 39.944-68.476 86.22" stroke="#000" stroke-linecap="round" stroke-width=".39084px" fill="none"/>
<path d="m1061 2.1106v75.668h311.97v-75.668h-311.97z" fill-rule="evenodd" fill="#fff"/>
<path stroke-linejoin="round" d="m1061 77.778h311.97v-75.668h-311.97v75.668z" stroke="#000" stroke-linecap="round" stroke-width=".39084px" fill="none"/>
<text font-weight="bold" xml:space="preserve" font-size="16.259px" y="35.019688" x="1084.3596" font-family="Arial" fill="#000000">Routers</text>
<text xml:space="preserve" font-size="16.259px" y="35.019688" x="1151.8976" font-family="Arial" fill="#000000">support one or more of the </text>
<text xml:space="preserve" font-size="16.259px" y="55.030937" x="1134.3877" font-family="Arial" fill="#000000">Roles</text>
<text xml:space="preserve" font-size="16.259px" y="55.030937" x="1176.9116" font-family="Arial" fill="#000000">: </text>
<text font-weight="bold" xml:space="preserve" font-size="16.259px" y="55.030937" x="1185.6665" font-family="Arial" fill="#000000">Broker</text>
<text xml:space="preserve" font-size="16.259px" y="55.030937" x="1239.4468" font-family="Arial" fill="#000000">, </text>
<text font-weight="bold" xml:space="preserve" font-size="16.259px" y="55.030937" x="1249.4524" font-family="Arial" fill="#000000">Dealer</text>
<path d="m290.48 810.46c13.054 0 23.607-10.631 23.607-23.685v-69.727c0-13.054-10.553-23.607-23.607-23.607h-108.73c-13.054 0-23.607 10.553-23.607 23.607v69.727c0 13.054 10.553 23.685 23.607 23.685h108.73z" fill-rule="evenodd" fill="#fa72c6"/>
<path stroke-linejoin="round" d="m290.48 810.46c13.054 0 23.607-10.631 23.607-23.685v0-69.727c0-13.054-10.553-23.607-23.607-23.607h-108.73c-13.054 0-23.607 10.553-23.607 23.607v0 69.727c0 13.054 10.553 23.685 23.607 23.685v0h108.73z" stroke="#000" stroke-linecap="round" stroke-width="2.0324px" fill="none"/>
<text xml:space="preserve" font-size="23.763px" y="759.17676" x="201.3632" font-family="Arial" fill="#ffffff">Router</text>
<path d="m314.08 728.3v47.292h756.36v-47.292h-756.36z" fill-rule="evenodd" fill="#fa72c6"/>
<path stroke-linejoin="round" d="m314.08 775.59h756.36v-47.292h-756.36v47.292z" stroke="#000" stroke-linecap="round" stroke-width="1.1725px" fill="none"/>
<text xml:space="preserve" font-size="23.763px" y="759.17676" x="650.3656" font-family="Arial" fill="#ffffff">Session</text>
<path d="m1202.8 809.28c13.054 0 23.607-10.631 23.607-23.685v-69.727c0-13.054-10.553-23.607-23.607-23.607h-108.73c-13.054 0-23.607 10.553-23.607 23.607v69.727c0 13.054 10.553 23.685 23.607 23.685h108.73z" fill-rule="evenodd" fill="#fa72c6"/>
<path stroke-linejoin="round" d="m1202.8 809.28c13.054 0 23.607-10.631 23.607-23.685v-69.727c0-13.054-10.553-23.607-23.607-23.607v0h-108.73c-13.054 0-23.607 10.553-23.607 23.607v69.727c0 13.054 10.553 23.685 23.607 23.685v0h108.73z" stroke="#000" stroke-linecap="round" stroke-width="2.0324px" fill="none"/>
<text xml:space="preserve" font-size="23.763px" y="757.92609" x="1113.1259" font-family="Arial" fill="#ffffff">Router</text>
<path stroke-linejoin="round" d="m384.98 77.778h614.56" stroke="#000" stroke-linecap="round" stroke-width="3.5958px" fill="none"/>
<path stroke-linejoin="round" d="m384.98 834.06h614.56" stroke="#000" stroke-linecap="round" stroke-width="3.5958px" fill="none"/>
<path stroke-linejoin="round" d="m602.45 857.75 89.816-82.156" stroke="#000" stroke-linecap="round" stroke-width=".39084px" fill="none"/>
<path d="m446.42 819.91v75.589h312.05v-75.589h-312.05z" fill-rule="evenodd" fill="#fff"/>
<path stroke-linejoin="round" d="m446.42 895.5h312.05v-75.589h-312.05v75.589z" stroke="#000" stroke-linecap="round" stroke-width=".39084px" fill="none"/>
<text font-weight="bold" xml:space="preserve" font-size="16.259px" y="852.97949" x="469.01367" font-family="Arial" fill="#000000">Router</text>
<text font-weight="bold" xml:space="preserve" font-size="16.259px" y="852.97949" x="522.79388" font-family="Arial" fill="#000000">-</text>
<text font-weight="bold" xml:space="preserve" font-size="16.259px" y="852.97949" x="527.79669" font-family="Arial" fill="#000000">to</text>
<text font-weight="bold" xml:space="preserve" font-size="16.259px" y="852.97949" x="544.05585" font-family="Arial" fill="#000000">-</text>
<text font-weight="bold" xml:space="preserve" font-size="16.259px" y="852.97949" x="549.05865" font-family="Arial" fill="#000000">Router</text>
<text xml:space="preserve" font-size="16.259px" y="852.97949" x="607.84167" font-family="Arial" fill="#000000">Sessions are an </text>
<text xml:space="preserve" font-size="16.259px" y="872.99078" x="461.50943" font-family="Arial" fill="#000000">advanced feature of clustered Routers</text>
</g>
</g>
</svg>
